<svg xmlns="http://www.w3.org/2000/svg" viewBox="0 0 355.02 81.71"><defs><style>.cls-1{fill:#fff;}.cls-2{fill:#1a1130;}</style></defs><title>Recurso 1</title><g id="Capa_2" data-name="Capa 2"><g id="Layer_1" data-name="Layer 1"><rect class="cls-1" width="81.77" height="81.71"/><polygon class="cls-2" points="40.86 53.02 28.7 53.02 28.7 44.98 49.2 44.98 49.2 36.72 20.46 36.72 20.46 36.72 20.43 36.72 20.43 61.28 28.7 61.28 28.7 61.28 40.86 61.28 49.2 61.28 61.36 61.28 61.36 53.02 49.2 53.02 40.86 53.02"/><polygon class="cls-2" points="53.22 20.43 40.86 20.43 20.46 20.43 20.46 28.69 40.86 28.69 53.22 28.69 61.36 28.69 61.36 20.43 53.22 20.43"/><path class="cls-1" d="M110.38,57.17V24.59h20.76v5.07H116v8.56h13.83V43.3H116v8.8h15.36v5.07Z"/><path class="cls-1" d="M136.45,57.17v-23h5.26v2.56h.79a5.61,5.61,0,0,1,2-2.08,7,7,0,0,1,3.8-.9,7.24,7.24,0,0,1,4.05,1,6.69,6.69,0,0,1,2.32,2.61h.75a6.66,6.66,0,0,1,2.28-2.61,7.43,7.43,0,0,1,4.23-1,8.13,8.13,0,0,1,3.89.93,7,7,0,0,1,2.79,2.74A8.92,8.92,0,0,1,169.68,42V57.17h-5.35V42.32a3.69,3.69,0,0,0-4.05-4.1A4.24,4.24,0,0,0,157,39.6a5.68,5.68,0,0,0-1.23,3.93V57.17h-5.31V42.32a3.69,3.69,0,0,0-4-4.1A4.22,4.22,0,0,0,143,39.6a5.72,5.72,0,0,0-1.21,3.93V57.17Z"/><path class="cls-1" d="M186.76,57.82a12.2,12.2,0,0,1-6.07-1.47,10.22,10.22,0,0,1-4.1-4.14A12.78,12.78,0,0,1,175.13,46v-.56a13,13,0,0,1,1.44-6.28A10.23,10.23,0,0,1,180.62,35a12,12,0,0,1,6-1.47A11.42,11.42,0,0,1,192.49,35a10.15,10.15,0,0,1,3.91,4.12,13.11,13.11,0,0,1,1.39,6.19v1.91H180.52a5.86,5.86,0,0,0,1.91,4.33,6.48,6.48,0,0,0,4.47,1.63A5.58,5.58,0,0,0,190.76,52a7.78,7.78,0,0,0,1.91-2.59l4.42,2.28a13.92,13.92,0,0,1-1.88,2.68,10.22,10.22,0,0,1-3.28,2.42A11.73,11.73,0,0,1,186.76,57.82Zm-6.19-14.66h11.78a5.17,5.17,0,0,0-1.75-3.63,6,6,0,0,0-10,3.63Z"/><path class="cls-1" d="M203.28,57.17v-23h5.26v2.65h.8a3.67,3.67,0,0,1,1.72-2.1,6,6,0,0,1,2.88-.65h2.8v4.75h-2.89a5.61,5.61,0,0,0-3.77,1.23,4.75,4.75,0,0,0-1.44,3.8V57.17Z"/><path class="cls-1" d="M219.53,45.77v-.7A12.63,12.63,0,0,1,221,38.85a10.05,10.05,0,0,1,3.86-4,10.57,10.57,0,0,1,5.31-1.38,8.76,8.76,0,0,1,5,1.17,8.11,8.11,0,0,1,2.49,2.51h.79v-3h5.21V61.54a4.92,4.92,0,0,1-1.3,3.61,4.76,4.76,0,0,1-3.54,1.33H223.3V61.82h13.64a1.21,1.21,0,0,0,1.35-1.39V53.77h-.8a8.56,8.56,0,0,1-1.39,1.61,7.32,7.32,0,0,1-2.33,1.37,10.18,10.18,0,0,1-3.63.56,10.57,10.57,0,0,1-5.31-1.38A10.05,10.05,0,0,1,221,52,12.56,12.56,0,0,1,219.53,45.77Zm12.1,6.84a6.65,6.65,0,0,0,4.79-1.84,6.78,6.78,0,0,0,1.91-5.14v-.47A6.88,6.88,0,0,0,236.45,40a6.68,6.68,0,0,0-4.82-1.81,6.44,6.44,0,0,0-6.75,7v.47a6.48,6.48,0,0,0,6.75,7Z"/><path class="cls-1" d="M260.91,57.82a12.27,12.27,0,0,1-6.08-1.47,10.19,10.19,0,0,1-4.09-4.14A12.79,12.79,0,0,1,249.27,46v-.56a13,13,0,0,1,1.44-6.28,10.23,10.23,0,0,1,4-4.12,12,12,0,0,1,6-1.47A11.38,11.38,0,0,1,266.63,35a10.09,10.09,0,0,1,3.91,4.12,13.11,13.11,0,0,1,1.4,6.19v1.91H254.67a5.82,5.82,0,0,0,1.91,4.33,6.48,6.48,0,0,0,4.47,1.63A5.62,5.62,0,0,0,264.91,52a7.91,7.91,0,0,0,1.91-2.59l4.42,2.28a14,14,0,0,1-1.89,2.68,10.11,10.11,0,0,1-3.28,2.42A11.69,11.69,0,0,1,260.91,57.82Zm-6.19-14.66h11.77a5.12,5.12,0,0,0-1.74-3.63,6,6,0,0,0-10,3.63Z"/><path class="cls-1" d="M277.43,57.17v-23h5.26v3.21h.79a6.62,6.62,0,0,1,2.19-2.47,8,8,0,0,1,4.79-1.16,9,9,0,0,1,4.7,1.21,8.3,8.3,0,0,1,3.19,3.35,10.66,10.66,0,0,1,1.14,5.07V57.17h-5.35V43.81a5.71,5.71,0,0,0-1.37-4.17,5.29,5.29,0,0,0-3.89-1.37,5.6,5.6,0,0,0-4.47,1.89,7.93,7.93,0,0,0-1.63,5.37V57.17Z"/><path class="cls-1" d="M316.81,57.82a12.94,12.94,0,0,1-6.05-1.4,10.32,10.32,0,0,1-4.26-4.05A12.33,12.33,0,0,1,304.94,46v-.65A12.36,12.36,0,0,1,306.5,39a10.32,10.32,0,0,1,4.26-4,12.94,12.94,0,0,1,6.05-1.4,12.57,12.57,0,0,1,5.65,1.17,9.93,9.93,0,0,1,3.79,3.19,10.68,10.68,0,0,1,1.87,4.53L323,43.48a6.94,6.94,0,0,0-.88-2.63,5.12,5.12,0,0,0-2-1.88,6.45,6.45,0,0,0-3.14-.7,7,7,0,0,0-3.43.82,5.7,5.7,0,0,0-2.37,2.44,8.33,8.33,0,0,0-.86,3.91v.46a8.16,8.16,0,0,0,.86,3.89,5.87,5.87,0,0,0,2.37,2.44,6.94,6.94,0,0,0,3.43.84,5.86,5.86,0,0,0,4.3-1.46,6.72,6.72,0,0,0,1.84-3.8L328.26,49a12.08,12.08,0,0,1-2,4.42,10.2,10.2,0,0,1-3.79,3.19A12.44,12.44,0,0,1,316.81,57.82Z"/><path class="cls-1" d="M344,57.82a12.27,12.27,0,0,1-6.08-1.47,10.25,10.25,0,0,1-4.09-4.14A12.79,12.79,0,0,1,332.35,46v-.56a13,13,0,0,1,1.44-6.28,10.36,10.36,0,0,1,4-4.12,12,12,0,0,1,6-1.47A11.38,11.38,0,0,1,349.71,35a10.09,10.09,0,0,1,3.91,4.12A13.11,13.11,0,0,1,355,45.3v1.91H337.75a5.82,5.82,0,0,0,1.91,4.33,6.48,6.48,0,0,0,4.47,1.63A5.62,5.62,0,0,0,348,52a7.91,7.91,0,0,0,1.91-2.59l4.42,2.28a13.92,13.92,0,0,1-1.88,2.68,10.27,10.27,0,0,1-3.29,2.42A11.66,11.66,0,0,1,344,57.82ZM337.8,43.16h11.77a5.12,5.12,0,0,0-1.74-3.63,6.78,6.78,0,0,0-8.12,0A5.86,5.86,0,0,0,337.8,43.16Z"/></g></g></svg>